<svg width="16" height="16" viewBox="0 0 16 16" fill="none" xmlns="http://www.w3.org/2000/svg">
<path d="M7.99982 4.00008C10.3578 4.00008 12.5578 4.90208 14.1952 6.53941L15.1378 5.59675C13.2492 3.70741 10.7138 2.66675 7.99982 2.66675C5.28582 2.66741 2.75048 3.70741 0.861816 5.59675L1.80448 6.53941C3.44182 4.90208 5.64182 4.00008 7.99982 4.00008ZM11.7805 9.53808C9.73115 7.48875 6.26848 7.48875 4.21915 9.53808L5.16182 10.4807C6.69982 8.94275 9.29982 8.94275 10.8378 10.4807L11.7805 9.53808Z" fill="#3EB489"/>
<path d="M13.6246 7.5287C10.5766 4.47937 5.42398 4.47937 2.37598 7.5287L3.31864 8.47137C5.85664 5.93337 10.144 5.93337 12.682 8.47137L13.6246 7.5287Z" fill="#3EB489"/>
<path d="M7.99984 13.3334C8.73622 13.3334 9.33317 12.7365 9.33317 12.0001C9.33317 11.2637 8.73622 10.6667 7.99984 10.6667C7.26346 10.6667 6.6665 11.2637 6.6665 12.0001C6.6665 12.7365 7.26346 13.3334 7.99984 13.3334Z" fill="#3EB489"/>
</svg>
