<svg width="16" height="16" viewBox="0 0 16 16" fill="none" xmlns="http://www.w3.org/2000/svg">
<path d="M13.5 11.071V4.92904C13.8412 4.8416 14.1532 4.66544 14.4043 4.41843C14.6554 4.17143 14.8367 3.86237 14.9297 3.52266C15.0227 3.18294 15.0242 2.82465 14.934 2.48419C14.8437 2.14372 14.665 1.83319 14.4159 1.58413C14.1669 1.33507 13.8564 1.15635 13.5159 1.06612C13.1754 0.975887 12.8171 0.977357 12.4774 1.07038C12.1377 1.1634 11.8286 1.34466 11.5816 1.59576C11.3346 1.84685 11.1585 2.15884 11.071 2.50004H4.92904C4.8416 2.15884 4.66544 1.84685 4.41843 1.59576C4.17143 1.34466 3.86237 1.1634 3.52266 1.07038C3.18294 0.977357 2.82465 0.975887 2.48419 1.06612C2.14372 1.15635 1.83319 1.33507 1.58413 1.58413C1.33507 1.83319 1.15635 2.14372 1.06612 2.48419C0.975887 2.82465 0.977357 3.18294 1.07038 3.52266C1.1634 3.86237 1.34466 4.17143 1.59576 4.41843C1.84685 4.66544 2.15884 4.8416 2.50004 4.92904V11.071C2.15884 11.1585 1.84685 11.3346 1.59576 11.5816C1.34466 11.8286 1.1634 12.1377 1.07038 12.4774C0.977357 12.8171 0.975887 13.1754 1.06612 13.5159C1.15635 13.8564 1.33507 14.1669 1.58413 14.4159C1.83319 14.665 2.14372 14.8437 2.48419 14.934C2.82465 15.0242 3.18294 15.0227 3.52266 14.9297C3.86237 14.8367 4.17143 14.6554 4.41843 14.4043C4.66544 14.1532 4.8416 13.8412 4.92904 13.5H11.071C11.1585 13.8412 11.3346 14.1532 11.5816 14.4043C11.8286 14.6554 12.1377 14.8367 12.4774 14.9297C12.8171 15.0227 13.1754 15.0242 13.5159 14.934C13.8564 14.8437 14.1669 14.665 14.4159 14.4159C14.665 14.1669 14.8437 13.8564 14.934 13.5159C15.0242 13.1754 15.0227 12.8171 14.9297 12.4774C14.8367 12.1377 14.6554 11.8286 14.4043 11.5816C14.1532 11.3346 13.8412 11.1585 13.5 11.071ZM13 2.00004C13.1978 2.00004 13.3912 2.05869 13.5556 2.16857C13.7201 2.27845 13.8482 2.43463 13.9239 2.61735C13.9996 2.80008 14.0194 3.00115 13.9808 3.19513C13.9422 3.38911 13.847 3.56729 13.7071 3.70714C13.5673 3.847 13.3891 3.94224 13.1951 3.98082C13.0011 4.01941 12.8001 3.9996 12.6174 3.92392C12.4346 3.84823 12.2784 3.72006 12.1686 3.55561C12.0587 3.39116 12 3.19782 12 3.00004C12.0003 2.7349 12.1057 2.4807 12.2932 2.29322C12.4807 2.10574 12.7349 2.0003 13 2.00004ZM2.00004 3.00004C2.00004 2.80226 2.05869 2.60892 2.16857 2.44447C2.27845 2.28002 2.43463 2.15185 2.61735 2.07616C2.80008 2.00047 3.00115 1.98067 3.19513 2.01925C3.38911 2.05784 3.56729 2.15308 3.70714 2.29293C3.847 2.43278 3.94224 2.61097 3.98082 2.80495C4.01941 2.99893 3.9996 3.19999 3.92392 3.38272C3.84823 3.56545 3.72006 3.72163 3.55561 3.83151C3.39116 3.94139 3.19782 4.00004 3.00004 4.00004C2.7349 3.99977 2.4807 3.89433 2.29322 3.70685C2.10574 3.51937 2.0003 3.26517 2.00004 3.00004ZM3.00004 14C2.80226 14 2.60892 13.9414 2.44447 13.8315C2.28002 13.7216 2.15185 13.5654 2.07616 13.3827C2.00047 13.2 1.98067 12.9989 2.01925 12.8049C2.05784 12.611 2.15308 12.4328 2.29293 12.2929C2.43278 12.1531 2.61097 12.0578 2.80495 12.0193C2.99893 11.9807 3.19999 12.0005 3.38272 12.0762C3.56545 12.1518 3.72163 12.28 3.83151 12.4445C3.94139 12.6089 4.00004 12.8023 4.00004 13C3.99977 13.2652 3.89433 13.5194 3.70685 13.7069C3.51937 13.8943 3.26517 13.9998 3.00004 14ZM11.071 12.5H4.92904C4.83947 12.1563 4.65983 11.8426 4.40864 11.5914C4.15745 11.3402 3.8438 11.1606 3.50004 11.071V4.92904C3.84378 4.83943 4.1574 4.65977 4.40859 4.40859C4.65977 4.1574 4.83943 3.84378 4.92904 3.50004H11.071C11.1606 3.8438 11.3402 4.15745 11.5914 4.40864C11.8426 4.65983 12.1563 4.83947 12.5 4.92904V11.071C12.1563 11.1606 11.8426 11.3402 11.5914 11.5914C11.3402 11.8426 11.1606 12.1562 11.071 12.5ZM13 14C12.8023 14 12.6089 13.9414 12.4445 13.8315C12.28 13.7216 12.1518 13.5654 12.0762 13.3827C12.0005 13.2 11.9807 12.9989 12.0193 12.8049C12.0578 12.611 12.1531 12.4328 12.2929 12.2929C12.4328 12.1531 12.611 12.0578 12.8049 12.0193C12.9989 11.9807 13.2 12.0005 13.3827 12.0762C13.5654 12.1518 13.7216 12.28 13.8315 12.4445C13.9414 12.6089 14 12.8023 14 13C13.9996 13.2651 13.8942 13.5193 13.7067 13.7067C13.5193 13.8942 13.2651 13.9996 13 14Z" fill="#3EB489"/>
</svg>
