<svg width="16" height="16" viewBox="0 0 16 16" fill="none" xmlns="http://www.w3.org/2000/svg">
<path d="M13 5.25H6.5V9.01934H5.80769V7.73809C5.80688 7.01216 5.51816 6.31619 5.00485 5.80288C4.49155 5.28956 3.79559 5.00082 3.06966 5H1.5V3H0.5V13.75H1.5V12.258L14.5 12.362V13.75H15.5V7.75C15.4992 7.08719 15.2356 6.45174 14.7669 5.98306C14.2983 5.51439 13.6628 5.25075 13 5.25ZM1.5 6H3.06966C3.53045 6.00052 3.97222 6.1838 4.29805 6.50963C4.62389 6.83546 4.80717 7.27724 4.80769 7.73803V9.01928H1.5V6ZM14.5 11.362L1.5 11.258V10.0193H14.5V11.362ZM14.5 9.01934H7.5V6.25H13C13.3977 6.25045 13.779 6.40864 14.0602 6.68984C14.3414 6.97105 14.4995 7.35231 14.5 7.75V9.01934Z" fill="#3EB489"/>
</svg>
