<svg width="16" height="16" viewBox="0 0 16 16" fill="none" xmlns="http://www.w3.org/2000/svg">
<path d="M14.5 8.75016H2.5V3.12516C2.49942 2.91333 2.54086 2.70348 2.62193 2.50778C2.703 2.31207 2.82208 2.13438 2.97228 1.98501L2.98478 1.97251C3.22018 1.73746 3.5224 1.58081 3.85016 1.52398C4.17792 1.46714 4.51524 1.51288 4.81603 1.65494C4.53196 2.12725 4.41389 2.68095 4.48057 3.22806C4.54726 3.77517 4.79488 4.2843 5.18409 4.67454L5.52631 5.01676L4.89641 5.64669L5.60347 6.35376L6.23338 5.72385L9.72366 2.23363L10.3536 1.60373L9.64647 0.896631L9.01653 1.52654L8.67431 1.18432C8.26458 0.775735 7.72448 0.523868 7.14812 0.47261C6.57176 0.421352 5.99568 0.573953 5.52028 0.903819C5.01897 0.587229 4.4249 0.450555 3.83564 0.516249C3.24638 0.581943 2.69699 0.846097 2.27772 1.26532L2.26522 1.27782C2.02186 1.51985 1.82892 1.80774 1.69757 2.12484C1.56622 2.44194 1.49907 2.78194 1.5 3.12516V8.75016H0.5V9.75016H1.5V10.7095C1.49998 10.7901 1.51298 10.8702 1.5385 10.9467L2.46875 13.7373C2.51839 13.8867 2.61385 14.0167 2.74156 14.1088C2.86928 14.2008 3.02275 14.2503 3.18019 14.2502H3.58331L3.21875 15.5002H4.26041L4.625 14.2502H11.1281L11.5031 15.5002H12.5469L12.1719 14.2502H12.8197C12.9771 14.2503 13.1306 14.2009 13.2584 14.1088C13.3861 14.0167 13.4816 13.8867 13.5312 13.7373L14.4614 10.9467C14.487 10.8702 14.5 10.7902 14.5 10.7095V9.75016H15.5V8.75016H14.5ZM5.89125 1.89141C6.16675 1.61651 6.54004 1.46213 6.92923 1.46213C7.31842 1.46213 7.69172 1.61651 7.96722 1.89141L8.30937 2.23363L6.23347 4.30954L5.89125 3.96738C5.61637 3.69188 5.46199 3.31858 5.46199 2.9294C5.46199 2.54021 5.61637 2.16692 5.89125 1.89141ZM13.5 10.6689L12.6396 13.2502H3.36037L2.5 10.6689V9.75016H13.5V10.6689Z" fill="#3EB489"/>
</svg>
