<svg width="16" height="16" viewBox="0 0 16 16" fill="none" xmlns="http://www.w3.org/2000/svg">
<path d="M5.33317 3.33325H6.6665V5.33325H5.33317V3.33325ZM5.33317 7.99992H6.6665V11.3333H5.33317V7.99992ZM11.9998 1.33992L3.99984 1.33325C3.64622 1.33325 3.30708 1.47373 3.05703 1.72378C2.80698 1.97382 2.6665 2.31296 2.6665 2.66659V13.3333C2.6665 14.0666 3.2665 14.6666 3.99984 14.6666H11.9998C12.7332 14.6666 13.3332 14.0666 13.3332 13.3333V2.66659C13.3332 1.92659 12.7332 1.33992 11.9998 1.33992ZM11.9998 13.3333H3.99984V7.31992H11.9998V13.3333ZM11.9998 5.99992H3.99984V2.66659H11.9998V5.99992Z" fill="#3EB489"/>
</svg>
