<svg width="16" height="16" viewBox="0 0 16 16" fill="none" xmlns="http://www.w3.org/2000/svg">
<path d="M8.00008 2H3.33341C2.89139 2 2.46746 2.17559 2.1549 2.48816C1.84234 2.80072 1.66675 3.22464 1.66675 3.66667V12.3333C1.66675 12.7754 1.84234 13.1993 2.1549 13.5118C2.46746 13.8244 2.89139 14 3.33341 14H10.0001" stroke="#212121" stroke-linecap="round" stroke-linejoin="round"/>
<path d="M6.33341 2V7.84133L1.66675 9.33333" stroke="#212121" stroke-linecap="round" stroke-linejoin="round"/>
<path d="M6.3335 8L10.3335 9.33333" stroke="#212121" stroke-linecap="round" stroke-linejoin="round"/>
<path d="M12.3335 6V14" stroke="#212121" stroke-linecap="round"/>
<path d="M10.3335 4.44401C10.3335 2.37001 11.6668 1.33301 12.3335 1.33301C13.0002 1.33301 14.3335 2.37001 14.3335 4.44401C14.3335 6.51834 10.3335 6.51834 10.3335 4.44401Z" stroke="#212121"/>
</svg>
