<svg width="16" height="16" viewBox="0 0 16 16" fill="none" xmlns="http://www.w3.org/2000/svg">
<path d="M9.07056 10.1277C9.07056 11.5994 10.2637 12.7925 11.7354 12.7925C13.2071 12.7925 14.4002 11.5994 14.4002 10.1277C14.4002 8.656 13.2071 7.46289 11.7354 7.46289C10.2643 7.4645 9.07217 8.65664 9.07056 10.1277V10.1277ZM11.7354 7.9958C12.9129 7.9958 13.8673 8.95025 13.8673 10.1277C13.8673 11.3051 12.9129 12.2595 11.7354 12.2595C10.558 12.2595 9.60358 11.3051 9.60358 10.1277C9.60487 8.95089 10.5586 7.99709 11.7354 7.9958Z" fill="#212121"/>
<path d="M10.2126 15.457H13.2583V15.9899H10.2126V15.457Z" fill="#212121"/>
<path d="M9.07056 14.3916H14.4003V14.9246H9.07056V14.3916Z" fill="#212121"/>
<path d="M3.20801 14.3916H3.74103V14.9246H3.20801V14.3916Z" fill="#212121"/>
<path d="M1.60913 14.9238H2.14204V15.4569H1.60913V14.9238Z" fill="#212121"/>
<path d="M3.23449 12.8917C4.62595 10.4683 5.49901 7.78223 5.79831 5.00382L8.27667 7.46745C8.32623 7.51679 8.39321 7.54464 8.46319 7.54496C8.4776 7.54507 8.49211 7.54388 8.5063 7.54152C8.5908 7.52776 8.66348 7.47422 8.70164 7.39767C9.20402 6.39496 9.00729 5.18314 8.21345 4.39092L7.99554 4.1729H9.86992C10.0171 4.17301 10.1365 4.05378 10.1365 3.9066C10.1366 3.87779 10.1319 3.8492 10.1229 3.822C9.76897 2.75768 8.77303 2.03996 7.65141 2.04104H7.30502L8.63585 0.702469C8.7397 0.598188 8.73927 0.429509 8.63499 0.325658C8.61478 0.305554 8.59156 0.288783 8.56608 0.276097C7.56293 -0.22682 6.35047 -0.03019 5.55771 0.764071L5.30324 1.01854C5.22025 1.10207 5.14316 1.19109 5.07221 1.28505C5.00212 1.19109 4.92557 1.10207 4.84322 1.01854L4.58875 0.764071C3.79664 -0.0296525 2.58482 -0.226283 1.58232 0.276097C1.45063 0.341891 1.3972 0.501969 1.46299 0.633557C1.47568 0.659037 1.49245 0.682258 1.51255 0.702469L2.84488 2.04104H2.49506C1.37344 2.03996 0.377385 2.75768 0.02358 3.822C-0.023078 3.96154 0.0522843 4.11248 0.191936 4.15914C0.219135 4.16828 0.247732 4.1729 0.276544 4.1729H2.1491L1.93118 4.39092C1.13735 5.18314 0.940614 6.39496 1.44289 7.39767C1.48116 7.47422 1.55383 7.52776 1.63823 7.54152C1.65252 7.54388 1.66693 7.54507 1.68144 7.54496C1.75186 7.54496 1.81937 7.51711 1.86926 7.46745L4.17711 5.17325C3.89135 7.72686 2.9296 10.158 1.39096 12.2159C1.03275 12.1218 0.669589 12.0478 0.303205 11.9942L0.136677 11.9775L0.0833538 12.508L0.238701 12.5232C0.505211 12.5613 0.77 12.6152 1.03339 12.6762C0.980069 12.743 0.926745 12.811 0.871594 12.8769L1.28034 13.2187C3.32823 10.7839 4.54908 7.76116 4.76657 4.58702L5.07329 4.28223L5.30292 4.51058C5.02276 7.90511 3.8576 11.167 1.92366 13.9708L2.36013 14.2762C2.56967 13.9771 2.76952 13.6667 2.96325 13.3504C4.20979 13.9467 5.31045 14.809 6.1877 15.8766L6.59988 15.539C6.08116 14.9083 5.48686 14.3438 4.83021 13.8583H15.9991V13.3253H4.04068C3.77944 13.1676 3.50981 13.0247 3.23449 12.8917V12.8917ZM8.36536 6.80359L5.54976 4.00422C6.26994 3.78921 7.05001 3.98433 7.58411 4.51316L7.83858 4.76773C8.3717 5.29989 8.57339 6.07964 8.36536 6.80359ZM9.46333 3.63999H7.25686C6.74298 3.39541 6.16319 3.32617 5.6062 3.44303C5.99397 2.89776 6.6216 2.57395 7.29072 2.57406H7.65044C8.40374 2.57287 9.09813 2.98118 9.46333 3.63999ZM5.67919 1.39535L5.93377 1.14088C6.46636 0.607648 7.24643 0.405858 7.9707 0.613991L6.391 2.20305C5.8783 2.39172 5.43816 2.73725 5.13295 3.19039C5.009 2.53847 5.21347 1.8672 5.68005 1.39535H5.67919ZM4.21119 1.14088L4.46566 1.39535C4.58434 1.51651 4.68734 1.65219 4.77216 1.79904C4.65143 2.07974 4.58252 2.37979 4.56854 2.6849C4.32934 2.4759 4.0538 2.31271 3.75579 2.20305L2.17576 0.613991C2.89982 0.405965 3.67967 0.607756 4.21194 1.14088H4.21119ZM2.4942 2.57406H2.85402C3.52357 2.57341 4.15206 2.89711 4.54027 3.44271C3.9836 3.32628 3.40403 3.39552 2.89047 3.63999H0.683135C1.04823 2.98151 1.74208 2.5733 2.49506 2.57406H2.4942ZM1.7811 6.80359C1.57308 6.07964 1.77487 5.29989 2.30799 4.76773L2.56246 4.51316C2.94583 4.13076 3.46574 3.91671 4.00735 3.91843C4.20721 3.91854 4.40599 3.94703 4.59789 4.00315L1.7811 6.80359Z" fill="#212121"/>
</svg>
