<svg xmlns="http://www.w3.org/2000/svg" viewBox="0 0 244.77 82.52"><defs><style>.cls-1,.cls-3{fill:#055748;}.cls-2{fill:#f3961f;}.cls-3{fill-rule:evenodd;}</style></defs><g id="Layer_2" data-name="Layer 2"><g id="Layer_1-2" data-name="Layer 1"><path class="cls-1" d="M17.32,42h1.93a.12.12,0,0,1,.08.11v7.29c0,.08,0,.12-.08.12h-.59c-1.87,0-3.13.42-3.78,1.25-1.42,1.21-2.14,3.43-2.14,6.68A17.38,17.38,0,0,1,11,64a11.77,11.77,0,0,1-5.93,5.83,8.1,8.1,0,0,1-2.44.47h-2q-.09,0-.09-.12V62.89c0-.07,0-.11.09-.11h1q3.7,0,5.08-4.09a14.38,14.38,0,0,0,.39-4,18.61,18.61,0,0,1,2.18-7.26,11.49,11.49,0,0,1,5.49-5A7.78,7.78,0,0,1,17.32,42Z"/><path class="cls-1" d="M21.43,28.46h5.29a.11.11,0,0,1,.09.11V42.4h6.44c.06,0,.09.05.09.11v7.23q0,.12-.09.12H26.81v5.31c0,2.33.3,4,.89,4.89a4.63,4.63,0,0,0,4.38,2.86h1.17q.09,0,.09.12v7.14q0,.12-.09.12h-2q-3.54,0-6.78-3.91a16.18,16.18,0,0,1-3.12-9.5V28.57C21.36,28.5,21.39,28.46,21.43,28.46Z"/><path class="cls-1" d="M102.29,50.46a13.78,13.78,0,0,1-3,6,16.15,16.15,0,0,1,3,6.62,18.27,18.27,0,0,1,.34,3.29v3.79c0,.08,0,.12-.09.12h-5.4c-.06,0-.08,0-.08-.12v-.79c0-2.52-.62-9.13-5-9.13-3.73,0-4.85,5.2-4.85,8.52v1.4a.12.12,0,0,1-.08.12H81.73s-.09,0-.09-.12V28.57c0-.05.12-.09.18-.11h5.3s.07,0,.08.11V46c0,3.32,1.55,7.32,4.87,7.32h0c1.93-.21,5-1.58,5-7.32v-3.9c0-.07,0,0,.08,0h5.4s.07-.07.09,0v5.09A18.37,18.37,0,0,1,102.29,50.46Z"/><path class="cls-1" d="M45.46,42.4h.76q4,0,7.3,4.54a16.76,16.76,0,0,1,2.68,9.22v14q0,.12-.09.12H50.78q-.09,0-.09-.12V68.7a8.33,8.33,0,0,1-4.78,1.6h-.19q-3.82,0-7-3.79a16.06,16.06,0,0,1-3.24-9.68v-1A16.35,16.35,0,0,1,38.85,46C41,43.6,43.2,42.4,45.46,42.4Zm.3,7.43h-.17q-2.4,0-4,3.44A9.47,9.47,0,0,0,41,56.33a6.94,6.94,0,0,0,2.81,5.92,3.71,3.71,0,0,0,1.92.61H46q2.67,0,4.19-3.55a7.69,7.69,0,0,0,.54-2.83v-.32a6.91,6.91,0,0,0-2.64-5.66,3.73,3.73,0,0,0-1.92-.67h-.22s0,0,0-.06Z"/><path class="cls-1" d="M58.47,42.07h5.12a.12.12,0,0,1,.09.12v12.1c0,5.5,2.29,6.85,3.54,7.38a2.94,2.94,0,0,0,1,.17h.41c1.55,0,4.46-1.42,4.46-7.55V42.19c0-.08,0-.12.08-.12h5.17a.12.12,0,0,1,.08.12v27A15.14,15.14,0,0,1,74.27,80a8.32,8.32,0,0,1-5.73,2.57H62.62q-.09,0-.09-.12v-7q0-.12.09-.12H68.5c1.65,0,3-1.11,4-3.35a8.28,8.28,0,0,0,.52-2.8V67.5a7.87,7.87,0,0,1-4.5,1.55h-.45q-3.87,0-7.05-4.29a15.87,15.87,0,0,1-2.66-8.69V42.19Q58.41,42.07,58.47,42.07Z"/><path class="cls-1" d="M121.72,42h1.93a.12.12,0,0,1,.08.11v7.29c0,.08,0,.12-.08.12h-.59c-1.87,0-3.13.42-3.78,1.25-1.43,1.21-2.14,3.43-2.14,6.68A17.24,17.24,0,0,1,115.43,64a11.72,11.72,0,0,1-5.92,5.83,8.1,8.1,0,0,1-2.44.47h-2s-.08,0-.08-.12V62.89c0-.07,0-.11.08-.11h1q3.7,0,5.08-4.09a14.38,14.38,0,0,0,.39-4,18.61,18.61,0,0,1,2.18-7.26,11.4,11.4,0,0,1,5.49-5A7.78,7.78,0,0,1,121.72,42Z"/><path class="cls-1" d="M135.68,42.4h.76c2.65,0,5.09,1.51,7.3,4.54a16.76,16.76,0,0,1,2.68,9.22v14c0,.08,0,.12-.08.12H141q-.09,0-.09-.12V68.7a8.32,8.32,0,0,1-4.77,1.6h-.2q-3.83,0-7-3.79a16.06,16.06,0,0,1-3.24-9.68v-1a16.35,16.35,0,0,1,3.33-9.8Q132.3,42.4,135.68,42.4Zm.31,7.43h-.18q-2.4,0-4,3.44a9.47,9.47,0,0,0-.58,3.06A7,7,0,0,0,134,62.25a3.74,3.74,0,0,0,1.92.61h.24c1.79,0,3.18-1.18,4.19-3.55a7.69,7.69,0,0,0,.54-2.83v-.32a6.93,6.93,0,0,0-2.63-5.66,3.76,3.76,0,0,0-1.93-.67h-.21s0,0,0-.06Z"/><path class="cls-2" d="M154.54,57h.61c1.9,0,3.37,1.48,4.41,4.46a9.44,9.44,0,0,1,.22,1.69V64a6.62,6.62,0,0,1-3.15,5.9,3.31,3.31,0,0,1-1.56.41h-.61q-2.73,0-4.29-4.46a7.33,7.33,0,0,1-.23-1.75v-.82a6.57,6.57,0,0,1,3.31-5.94A3.26,3.26,0,0,1,154.54,57Z"/><path class="cls-2" d="M173.35,42.1h.75c2.21,0,4.33,1.1,6.38,3.3a15.43,15.43,0,0,1,3.41,7.4l-.08.06H178c-1.13-2.15-2.46-3.23-4-3.23h-.22s0,0,0-.06l-.11.06h-.17c-1.62,0-3,1.15-4.07,3.47a9.71,9.71,0,0,0-.58,3.09,7,7,0,0,0,2.83,6,3.8,3.8,0,0,0,2,.62h.23c1.63,0,3-1.08,4.15-3.24h5.82l.08.06a15.06,15.06,0,0,1-3.58,7.58,8.87,8.87,0,0,1-6.51,3.12h-.19q-3.87,0-7-3.82a16.23,16.23,0,0,1-3.28-9.8v-1a16.52,16.52,0,0,1,3.37-9.91Q169.91,42.11,173.35,42.1Z"/><path class="cls-2" d="M196.15,41.7h.75q4.09,0,7.5,4.66a17.28,17.28,0,0,1,2.75,9.45v.26a15.87,15.87,0,0,1-4.76,11.87,8.67,8.67,0,0,1-5.79,2.36h-.19c-2.63,0-5-1.29-7.14-3.88A16.53,16.53,0,0,1,186,56.48v-1a16.82,16.82,0,0,1,3.41-10.06Q192.68,41.7,196.15,41.7Zm.3,7.63h-.17c-1.65,0-3,1.17-4.13,3.5a10.07,10.07,0,0,0-.58,3.15,7.09,7.09,0,0,0,2.87,6.07,3.87,3.87,0,0,0,2,.61h.23c1.83,0,3.27-1.21,4.3-3.65a7.91,7.91,0,0,0,.54-2.88v-.32a7.08,7.08,0,0,0-2.7-5.8,3.88,3.88,0,0,0-2-.68h-.22s0,0,0,0Z"/><path class="cls-2" d="M218.79,42.31h.74c2.62,0,5,1.48,7.26,4.46,2.23-3,4.65-4.46,7.24-4.46h.76c2.59,0,5,1.47,7.21,4.4a16.6,16.6,0,0,1,2.77,8.78V70.18q0,.12-.09.12h-5.31c-.07,0-.11,0-.11-.12V56.42q0-4.58-3.41-6.41a3.52,3.52,0,0,0-1.15-.24h-.22s0,0,0-.06l-.09.06h-.21q-2.34,0-4,3.38a9.89,9.89,0,0,0-.56,3.44V70.18q0,.12-.09.12h-5.36q-.09,0-.09-.12V56.13a7,7,0,0,0-2.63-5.69,3.86,3.86,0,0,0-1.95-.67h-.21s0,0,0-.06l-.08.06h-.18q-2.41,0-4,3.44a11.73,11.73,0,0,0-.58,4.41V70.18q0,.12-.09.12H208.9q-.09,0-.09-.12V55.84a16.13,16.13,0,0,1,3.61-10.21Q215.56,42.32,218.79,42.31Z"/><path class="cls-3" d="M58.5,31.9l-3.63,5.72s-17-19-25.62-28.29C20.47,18.44,3.62,37.62,3.62,37.62L0,32,29.25,0,41.08,12.87V1.3H50V22.63Z"/></g></g></svg>